<svg xmlns="http://www.w3.org/2000/svg" xml:lang="en" height="70.81pt" width="342.20000000000005pt" viewBox="-4.6 -39.61000000000001 342.20000000000005 70.81"><polygon points="263.7,-9.0 276.3,-0.0 263.7,9.0 " style="stroke:black;fill:none;stroke-width:2.0;stroke-dasharray:-;stroke-linecap:round;stroke-linejoin:round;" /><path d="M 0.0,-0.0 L 43.875,-0.0 M 64.125,-0.0 L 108.0,-0.0" style="stroke:black;fill:none;stroke-width:2.0;stroke-dasharray:-;stroke-linecap:round;stroke-linejoin:round;" /><path d="M 43.875,-13.5 L 43.875,13.5" style="stroke:black;fill:none;stroke-width:2.0;stroke-dasharray:-;stroke-linecap:round;stroke-linejoin:round;" /><path d="M 50.625,-6.75 L 50.625,6.75" style="stroke:black;fill:none;stroke-width:2.0;stroke-dasharray:-;stroke-linecap:round;stroke-linejoin:round;" /><path d="M 57.375,-13.5 L 57.375,13.5" style="stroke:black;fill:none;stroke-width:2.0;stroke-dasharray:-;stroke-linecap:round;stroke-linejoin:round;" /><path d="M 64.125,-6.75 L 64.125,6.75" style="stroke:black;fill:none;stroke-width:2.0;stroke-dasharray:-;stroke-linecap:round;stroke-linejoin:round;" /><path d="M 108.0,-0.0 L 144.0,-0.0 L 147.0,-9.0 L 153.0,9.0 L 158.99999999999997,-9.0 L 165.0,9.0 L 171.0,-9.0 L 176.99999999999997,9.0 L 180.0,-0.0 L 216.0,-0.0" style="stroke:black;fill:none;stroke-width:2.0;stroke-dasharray:-;stroke-linecap:round;stroke-linejoin:round;" /><path d="M 216.0,-0.0 L 263.7,-0.0 M 276.3,-9.0 L 276.3,9.0 M 276.3,-0.0 L 324.0,-0.0" style="stroke:black;fill:none;stroke-width:2.0;stroke-dasharray:-;stroke-linecap:round;stroke-linejoin:round;" /><path d="M 272.7,-13.5 L 278.1277996438308,-22.99864937670389" style="stroke:black;fill:none;stroke-width:2.0;stroke-dasharray:-;stroke-linecap:round;stroke-linejoin:round;" /><path d="M 280.7077221232863 -27.51351371575108 L 280.62833989314925 -21.56976923423621 L 275.62725939451235 -24.427529519171575 Z" style="stroke:black;fill:black;stroke-linecap:butt;stroke-linejoin:miter;" /><path d="M 264.59999999999997,-13.5 L 270.02779964383075,-22.99864937670389" style="stroke:black;fill:none;stroke-width:2.0;stroke-dasharray:-;stroke-linecap:round;stroke-linejoin:round;" /><path d="M 272.6077221232863 -27.51351371575108 L 272.5283398931492 -21.56976923423621 L 267.5272593945123 -24.427529519171575 Z" style="stroke:black;fill:black;stroke-linecap:butt;stroke-linejoin:miter;" /><path d="M 324.0,-0.0 L 324.0,14.4 L 315.0,14.4 L 333.0,14.4 M 317.7,18.72 L 330.3,18.72 M 322.2,23.04 L 325.8,23.04" style="stroke:black;fill:none;stroke-width:2.0;stroke-dasharray:-;stroke-linecap:round;stroke-linejoin:round;" /><text x="54.0" y="-31.099999999999998" dominant-baseline="ideographic" fill="black" font-size="14.0" font-family="sans" text-anchor="middle"><tspan x="54.0" dy="14.0">9V Battery</tspan></text><text x="162.0" y="-26.6" dominant-baseline="ideographic" fill="black" font-size="14.0" font-family="sans" text-anchor="middle"><tspan x="162.0" dy="14.0">R1 (3Ω)</tspan></text><text x="270.0" y="-1.4000000000000004" dominant-baseline="hanging" fill="black" font-size="14.0" font-family="sans" text-anchor="middle"><tspan x="270.0" dy="14.0">LED1 (red)</tspan></text></svg>